<mxfile host="Electron" agent="Mozilla/5.0 (X11; Linux x86_64) AppleWebKit/537.36 (KHTML, like Gecko) draw.io/24.7.5 Chrome/126.0.6478.183 Electron/31.3.0 Safari/537.36" version="24.7.5" pages="2">
  <diagram name="Page-1" id="GZmw-kd40uwId4EYnFAq">
    <mxGraphModel dx="1480" dy="1345" grid="1" gridSize="10" guides="1" tooltips="1" connect="1" arrows="1" fold="1" page="0" pageScale="1" pageWidth="850" pageHeight="1100" math="0" shadow="0">
      <root>
        <mxCell id="0" />
        <mxCell id="1" parent="0" />
        <mxCell id="uui78y84cFhrKZhDwqd7-145" value="" style="rounded=0;whiteSpace=wrap;html=1;" parent="1" vertex="1">
          <mxGeometry x="1000" y="-160" width="1480" height="960" as="geometry" />
        </mxCell>
        <mxCell id="F316DXvCX8CDi4fnNiCG-3" style="edgeStyle=orthogonalEdgeStyle;rounded=0;orthogonalLoop=1;jettySize=auto;html=1;entryX=0;entryY=0.5;entryDx=0;entryDy=0;" parent="1" source="uui78y84cFhrKZhDwqd7-3" target="F316DXvCX8CDi4fnNiCG-1" edge="1">
          <mxGeometry relative="1" as="geometry" />
        </mxCell>
        <mxCell id="uui78y84cFhrKZhDwqd7-3" value="12V Car Power" style="shape=parallelogram;perimeter=parallelogramPerimeter;whiteSpace=wrap;html=1;fixedSize=1;fillColor=#990000;" parent="1" vertex="1">
          <mxGeometry x="40" y="160" width="120" height="80" as="geometry" />
        </mxCell>
        <mxCell id="uui78y84cFhrKZhDwqd7-14" style="edgeStyle=orthogonalEdgeStyle;rounded=0;orthogonalLoop=1;jettySize=auto;html=1;entryX=0;entryY=0.5;entryDx=0;entryDy=0;" parent="1" source="uui78y84cFhrKZhDwqd7-4" target="uui78y84cFhrKZhDwqd7-13" edge="1">
          <mxGeometry relative="1" as="geometry" />
        </mxCell>
        <mxCell id="uui78y84cFhrKZhDwqd7-54" style="edgeStyle=orthogonalEdgeStyle;rounded=0;orthogonalLoop=1;jettySize=auto;html=1;entryX=0;entryY=0.5;entryDx=0;entryDy=0;" parent="1" source="uui78y84cFhrKZhDwqd7-4" target="uui78y84cFhrKZhDwqd7-53" edge="1">
          <mxGeometry relative="1" as="geometry">
            <Array as="points">
              <mxPoint x="100" y="-40" />
            </Array>
            <mxPoint x="680" y="-40.00000000000023" as="targetPoint" />
          </mxGeometry>
        </mxCell>
        <mxCell id="uui78y84cFhrKZhDwqd7-4" value="Array Power&lt;div&gt;[0, 72.1]V&lt;/div&gt;" style="shape=parallelogram;perimeter=parallelogramPerimeter;whiteSpace=wrap;html=1;fixedSize=1;fillColor=#006600;shadow=0;" parent="1" vertex="1">
          <mxGeometry x="40" y="40" width="120" height="80" as="geometry" />
        </mxCell>
        <mxCell id="uui78y84cFhrKZhDwqd7-28" style="edgeStyle=orthogonalEdgeStyle;rounded=0;orthogonalLoop=1;jettySize=auto;html=1;entryX=0;entryY=0.5;entryDx=0;entryDy=0;" parent="1" source="uui78y84cFhrKZhDwqd7-6" target="uui78y84cFhrKZhDwqd7-7" edge="1">
          <mxGeometry relative="1" as="geometry" />
        </mxCell>
        <mxCell id="uui78y84cFhrKZhDwqd7-6" value="5V CAN Power" style="shape=parallelogram;perimeter=parallelogramPerimeter;whiteSpace=wrap;html=1;fixedSize=1;fillColor=#990000;" parent="1" vertex="1">
          <mxGeometry x="40" y="400" width="120" height="80" as="geometry" />
        </mxCell>
        <mxCell id="uui78y84cFhrKZhDwqd7-7" value="(ISO) CAN&lt;div&gt;ISO1044&lt;/div&gt;&lt;div&gt;(&lt;span style=&quot;background-color: initial;&quot;&gt;70mA | 3.5mA)&lt;/span&gt;&lt;/div&gt;" style="rounded=0;whiteSpace=wrap;html=1;fillColor=#000099;" parent="1" vertex="1">
          <mxGeometry x="360" y="400" width="120" height="80" as="geometry" />
        </mxCell>
        <mxCell id="uui78y84cFhrKZhDwqd7-29" style="edgeStyle=orthogonalEdgeStyle;rounded=0;orthogonalLoop=1;jettySize=auto;html=1;entryX=0.25;entryY=1;entryDx=0;entryDy=0;" parent="1" source="uui78y84cFhrKZhDwqd7-8" target="uui78y84cFhrKZhDwqd7-7" edge="1">
          <mxGeometry relative="1" as="geometry" />
        </mxCell>
        <mxCell id="uui78y84cFhrKZhDwqd7-66" value="CAN" style="edgeLabel;html=1;align=center;verticalAlign=middle;resizable=0;points=[];" parent="uui78y84cFhrKZhDwqd7-29" vertex="1" connectable="0">
          <mxGeometry x="0.6808" relative="1" as="geometry">
            <mxPoint y="-13" as="offset" />
          </mxGeometry>
        </mxCell>
        <mxCell id="uui78y84cFhrKZhDwqd7-8" value="CAN Comm" style="shape=parallelogram;perimeter=parallelogramPerimeter;whiteSpace=wrap;html=1;fixedSize=1;fillColor=#000099;" parent="1" vertex="1">
          <mxGeometry x="40" y="520" width="120" height="80" as="geometry" />
        </mxCell>
        <mxCell id="uui78y84cFhrKZhDwqd7-9" value="Debug UART&lt;div&gt;Comm&lt;/div&gt;" style="shape=parallelogram;perimeter=parallelogramPerimeter;whiteSpace=wrap;html=1;fixedSize=1;fillColor=#000099;" parent="1" vertex="1">
          <mxGeometry x="360" y="760" width="120" height="80" as="geometry" />
        </mxCell>
        <mxCell id="uui78y84cFhrKZhDwqd7-10" value="Prog/Debug&lt;div&gt;JTAG Comm&lt;/div&gt;" style="shape=parallelogram;perimeter=parallelogramPerimeter;whiteSpace=wrap;html=1;fixedSize=1;fillColor=#000099;" parent="1" vertex="1">
          <mxGeometry x="520" y="760" width="120" height="80" as="geometry" />
        </mxCell>
        <mxCell id="uui78y84cFhrKZhDwqd7-16" style="edgeStyle=orthogonalEdgeStyle;rounded=0;orthogonalLoop=1;jettySize=auto;html=1;" parent="1" source="uui78y84cFhrKZhDwqd7-13" target="uui78y84cFhrKZhDwqd7-15" edge="1">
          <mxGeometry relative="1" as="geometry" />
        </mxCell>
        <mxCell id="uui78y84cFhrKZhDwqd7-13" value="&lt;div&gt;DC-DC Regulator LMR38010&lt;/div&gt;" style="rounded=0;whiteSpace=wrap;html=1;fillColor=#990000;" parent="1" vertex="1">
          <mxGeometry x="200" y="40" width="120" height="80" as="geometry" />
        </mxCell>
        <mxCell id="uui78y84cFhrKZhDwqd7-22" style="edgeStyle=orthogonalEdgeStyle;rounded=0;orthogonalLoop=1;jettySize=auto;html=1;entryX=0;entryY=0.5;entryDx=0;entryDy=0;" parent="1" source="uui78y84cFhrKZhDwqd7-15" edge="1">
          <mxGeometry relative="1" as="geometry">
            <mxPoint x="520" y="80" as="targetPoint" />
          </mxGeometry>
        </mxCell>
        <mxCell id="uui78y84cFhrKZhDwqd7-15" value="12V Regulated&lt;div&gt;Power&lt;/div&gt;&lt;div&gt;(1A)&lt;/div&gt;" style="shape=parallelogram;perimeter=parallelogramPerimeter;whiteSpace=wrap;html=1;fixedSize=1;fillColor=#990000;" parent="1" vertex="1">
          <mxGeometry x="360" y="40" width="120" height="80" as="geometry" />
        </mxCell>
        <mxCell id="uui78y84cFhrKZhDwqd7-24" style="edgeStyle=orthogonalEdgeStyle;rounded=0;orthogonalLoop=1;jettySize=auto;html=1;entryX=0.5;entryY=0;entryDx=0;entryDy=0;" parent="1" source="uui78y84cFhrKZhDwqd7-17" target="uui78y84cFhrKZhDwqd7-19" edge="1">
          <mxGeometry relative="1" as="geometry" />
        </mxCell>
        <mxCell id="uui78y84cFhrKZhDwqd7-17" value="TPS2121&lt;div&gt;&lt;/div&gt;&lt;div&gt;RCP/OCP/OCP/UVLO&lt;/div&gt;&lt;div&gt;Power Mux&lt;/div&gt;" style="rounded=0;whiteSpace=wrap;html=1;fillColor=#990000;" parent="1" vertex="1">
          <mxGeometry x="520" y="40" width="120" height="80" as="geometry" />
        </mxCell>
        <mxCell id="uui78y84cFhrKZhDwqd7-31" style="edgeStyle=orthogonalEdgeStyle;rounded=0;orthogonalLoop=1;jettySize=auto;html=1;exitX=0.5;exitY=1;exitDx=0;exitDy=0;entryX=0.5;entryY=0;entryDx=0;entryDy=0;" parent="1" source="uui78y84cFhrKZhDwqd7-19" target="uui78y84cFhrKZhDwqd7-25" edge="1">
          <mxGeometry relative="1" as="geometry" />
        </mxCell>
        <mxCell id="uui78y84cFhrKZhDwqd7-19" value="&lt;div&gt;&lt;span style=&quot;background-color: initial;&quot;&gt;DC-DC Regulator AP63205&lt;/span&gt;&lt;br&gt;&lt;/div&gt;" style="rounded=0;whiteSpace=wrap;html=1;fillColor=#990000;" parent="1" vertex="1">
          <mxGeometry x="680" y="160" width="120" height="80" as="geometry" />
        </mxCell>
        <mxCell id="uui78y84cFhrKZhDwqd7-32" style="edgeStyle=orthogonalEdgeStyle;rounded=0;orthogonalLoop=1;jettySize=auto;html=1;entryX=1;entryY=0.5;entryDx=0;entryDy=0;" parent="1" source="uui78y84cFhrKZhDwqd7-25" target="uui78y84cFhrKZhDwqd7-30" edge="1">
          <mxGeometry relative="1" as="geometry" />
        </mxCell>
        <mxCell id="uui78y84cFhrKZhDwqd7-39" style="edgeStyle=orthogonalEdgeStyle;rounded=0;orthogonalLoop=1;jettySize=auto;html=1;entryX=0.5;entryY=0;entryDx=0;entryDy=0;" parent="1" source="uui78y84cFhrKZhDwqd7-25" target="uui78y84cFhrKZhDwqd7-36" edge="1">
          <mxGeometry relative="1" as="geometry" />
        </mxCell>
        <mxCell id="uui78y84cFhrKZhDwqd7-151" style="edgeStyle=orthogonalEdgeStyle;rounded=0;orthogonalLoop=1;jettySize=auto;html=1;exitX=1;exitY=0.5;exitDx=0;exitDy=0;entryX=1;entryY=0.5;entryDx=0;entryDy=0;" parent="1" source="uui78y84cFhrKZhDwqd7-25" target="uui78y84cFhrKZhDwqd7-150" edge="1">
          <mxGeometry relative="1" as="geometry">
            <Array as="points">
              <mxPoint x="820" y="320" />
              <mxPoint x="820" y="560" />
            </Array>
          </mxGeometry>
        </mxCell>
        <mxCell id="uui78y84cFhrKZhDwqd7-160" style="edgeStyle=orthogonalEdgeStyle;rounded=0;orthogonalLoop=1;jettySize=auto;html=1;entryX=0;entryY=0.5;entryDx=0;entryDy=0;" parent="1" source="uui78y84cFhrKZhDwqd7-25" target="uui78y84cFhrKZhDwqd7-145" edge="1">
          <mxGeometry relative="1" as="geometry" />
        </mxCell>
        <mxCell id="uui78y84cFhrKZhDwqd7-163" style="edgeStyle=orthogonalEdgeStyle;rounded=0;orthogonalLoop=1;jettySize=auto;html=1;entryX=0;entryY=0.5;entryDx=0;entryDy=0;" parent="1" source="uui78y84cFhrKZhDwqd7-25" target="uui78y84cFhrKZhDwqd7-162" edge="1">
          <mxGeometry relative="1" as="geometry">
            <Array as="points">
              <mxPoint x="820" y="320" />
              <mxPoint x="820" y="560" />
            </Array>
          </mxGeometry>
        </mxCell>
        <mxCell id="uui78y84cFhrKZhDwqd7-25" value="5V Regulated&lt;div&gt;Power&lt;/div&gt;&lt;div&gt;(2A)&lt;/div&gt;" style="shape=parallelogram;perimeter=parallelogramPerimeter;whiteSpace=wrap;html=1;fixedSize=1;fillColor=#990000;" parent="1" vertex="1">
          <mxGeometry x="680" y="280" width="120" height="80" as="geometry" />
        </mxCell>
        <mxCell id="uui78y84cFhrKZhDwqd7-27" style="edgeStyle=orthogonalEdgeStyle;rounded=0;orthogonalLoop=1;jettySize=auto;html=1;entryX=0;entryY=0.5;entryDx=0;entryDy=0;" parent="1" source="uui78y84cFhrKZhDwqd7-26" target="uui78y84cFhrKZhDwqd7-7" edge="1">
          <mxGeometry relative="1" as="geometry">
            <Array as="points">
              <mxPoint x="260" y="440" />
            </Array>
          </mxGeometry>
        </mxCell>
        <mxCell id="uui78y84cFhrKZhDwqd7-34" style="edgeStyle=orthogonalEdgeStyle;rounded=0;orthogonalLoop=1;jettySize=auto;html=1;exitX=0.5;exitY=1;exitDx=0;exitDy=0;entryX=1;entryY=0.5;entryDx=0;entryDy=0;" parent="1" source="uui78y84cFhrKZhDwqd7-26" target="uui78y84cFhrKZhDwqd7-6" edge="1">
          <mxGeometry relative="1" as="geometry">
            <Array as="points">
              <mxPoint x="260" y="440" />
            </Array>
          </mxGeometry>
        </mxCell>
        <mxCell id="uui78y84cFhrKZhDwqd7-26" value="5V Isolated&lt;div&gt;Power&lt;/div&gt;&lt;div&gt;(200mA)&lt;br&gt;&lt;/div&gt;" style="shape=parallelogram;perimeter=parallelogramPerimeter;whiteSpace=wrap;html=1;fixedSize=1;fillColor=#999999;" parent="1" vertex="1">
          <mxGeometry x="200" y="280" width="120" height="80" as="geometry" />
        </mxCell>
        <mxCell id="uui78y84cFhrKZhDwqd7-33" style="edgeStyle=orthogonalEdgeStyle;rounded=0;orthogonalLoop=1;jettySize=auto;html=1;entryX=1;entryY=0.5;entryDx=0;entryDy=0;" parent="1" source="uui78y84cFhrKZhDwqd7-30" target="uui78y84cFhrKZhDwqd7-26" edge="1">
          <mxGeometry relative="1" as="geometry" />
        </mxCell>
        <mxCell id="uui78y84cFhrKZhDwqd7-30" value="&lt;div&gt;(ISO) DC-DC Regulator CRE1S0505SC&lt;/div&gt;" style="rounded=0;whiteSpace=wrap;html=1;fillColor=#999999;" parent="1" vertex="1">
          <mxGeometry x="520" y="280" width="120" height="80" as="geometry" />
        </mxCell>
        <mxCell id="uui78y84cFhrKZhDwqd7-41" style="edgeStyle=orthogonalEdgeStyle;rounded=0;orthogonalLoop=1;jettySize=auto;html=1;entryX=0.75;entryY=1;entryDx=0;entryDy=0;" parent="1" source="uui78y84cFhrKZhDwqd7-35" target="uui78y84cFhrKZhDwqd7-7" edge="1">
          <mxGeometry relative="1" as="geometry" />
        </mxCell>
        <mxCell id="uui78y84cFhrKZhDwqd7-65" value="CAN" style="edgeLabel;html=1;align=center;verticalAlign=middle;resizable=0;points=[];" parent="uui78y84cFhrKZhDwqd7-41" vertex="1" connectable="0">
          <mxGeometry x="0.3244" y="2" relative="1" as="geometry">
            <mxPoint x="2" y="-51" as="offset" />
          </mxGeometry>
        </mxCell>
        <mxCell id="uui78y84cFhrKZhDwqd7-45" style="edgeStyle=orthogonalEdgeStyle;rounded=0;orthogonalLoop=1;jettySize=auto;html=1;entryX=0.5;entryY=0;entryDx=0;entryDy=0;" parent="1" source="uui78y84cFhrKZhDwqd7-35" target="uui78y84cFhrKZhDwqd7-10" edge="1">
          <mxGeometry relative="1" as="geometry" />
        </mxCell>
        <mxCell id="uui78y84cFhrKZhDwqd7-68" value="JTAG" style="edgeLabel;html=1;align=center;verticalAlign=middle;resizable=0;points=[];" parent="uui78y84cFhrKZhDwqd7-45" vertex="1" connectable="0">
          <mxGeometry x="0.0333" y="2" relative="1" as="geometry">
            <mxPoint x="-2" as="offset" />
          </mxGeometry>
        </mxCell>
        <mxCell id="uui78y84cFhrKZhDwqd7-46" style="edgeStyle=orthogonalEdgeStyle;rounded=0;orthogonalLoop=1;jettySize=auto;html=1;exitX=0.25;exitY=1;exitDx=0;exitDy=0;" parent="1" source="uui78y84cFhrKZhDwqd7-35" target="uui78y84cFhrKZhDwqd7-9" edge="1">
          <mxGeometry relative="1" as="geometry" />
        </mxCell>
        <mxCell id="uui78y84cFhrKZhDwqd7-67" value="UART" style="edgeLabel;html=1;align=center;verticalAlign=middle;resizable=0;points=[];" parent="uui78y84cFhrKZhDwqd7-46" vertex="1" connectable="0">
          <mxGeometry x="0.0235" relative="1" as="geometry">
            <mxPoint x="-3" as="offset" />
          </mxGeometry>
        </mxCell>
        <mxCell id="uui78y84cFhrKZhDwqd7-75" style="edgeStyle=orthogonalEdgeStyle;rounded=0;orthogonalLoop=1;jettySize=auto;html=1;entryX=0.75;entryY=1;entryDx=0;entryDy=0;" parent="1" source="uui78y84cFhrKZhDwqd7-35" target="uui78y84cFhrKZhDwqd7-47" edge="1">
          <mxGeometry relative="1" as="geometry" />
        </mxCell>
        <mxCell id="uui78y84cFhrKZhDwqd7-81" value="SPI" style="edgeLabel;html=1;align=center;verticalAlign=middle;resizable=0;points=[];" parent="uui78y84cFhrKZhDwqd7-75" vertex="1" connectable="0">
          <mxGeometry x="0.5094" y="-1" relative="1" as="geometry">
            <mxPoint x="-1" y="-463" as="offset" />
          </mxGeometry>
        </mxCell>
        <mxCell id="uui78y84cFhrKZhDwqd7-76" style="edgeStyle=orthogonalEdgeStyle;rounded=0;orthogonalLoop=1;jettySize=auto;html=1;entryX=0.5;entryY=1;entryDx=0;entryDy=0;" parent="1" source="uui78y84cFhrKZhDwqd7-35" target="uui78y84cFhrKZhDwqd7-74" edge="1">
          <mxGeometry relative="1" as="geometry" />
        </mxCell>
        <mxCell id="uui78y84cFhrKZhDwqd7-82" value="GPIO" style="edgeLabel;html=1;align=center;verticalAlign=middle;resizable=0;points=[];" parent="uui78y84cFhrKZhDwqd7-76" vertex="1" connectable="0">
          <mxGeometry x="0.9322" y="1" relative="1" as="geometry">
            <mxPoint x="1" y="3" as="offset" />
          </mxGeometry>
        </mxCell>
        <mxCell id="uui78y84cFhrKZhDwqd7-77" style="edgeStyle=orthogonalEdgeStyle;rounded=0;orthogonalLoop=1;jettySize=auto;html=1;entryX=0.5;entryY=1;entryDx=0;entryDy=0;" parent="1" source="uui78y84cFhrKZhDwqd7-35" target="uui78y84cFhrKZhDwqd7-72" edge="1">
          <mxGeometry relative="1" as="geometry" />
        </mxCell>
        <mxCell id="uui78y84cFhrKZhDwqd7-78" style="edgeStyle=orthogonalEdgeStyle;rounded=0;orthogonalLoop=1;jettySize=auto;html=1;entryX=0.5;entryY=1;entryDx=0;entryDy=0;" parent="1" source="uui78y84cFhrKZhDwqd7-35" target="uui78y84cFhrKZhDwqd7-73" edge="1">
          <mxGeometry relative="1" as="geometry" />
        </mxCell>
        <mxCell id="uui78y84cFhrKZhDwqd7-83" value="GPIO" style="edgeLabel;html=1;align=center;verticalAlign=middle;resizable=0;points=[];" parent="uui78y84cFhrKZhDwqd7-78" vertex="1" connectable="0">
          <mxGeometry x="0.8453" relative="1" as="geometry">
            <mxPoint y="6" as="offset" />
          </mxGeometry>
        </mxCell>
        <mxCell id="uui78y84cFhrKZhDwqd7-79" style="edgeStyle=orthogonalEdgeStyle;rounded=0;orthogonalLoop=1;jettySize=auto;html=1;entryX=0.25;entryY=1;entryDx=0;entryDy=0;" parent="1" source="uui78y84cFhrKZhDwqd7-35" target="uui78y84cFhrKZhDwqd7-53" edge="1">
          <mxGeometry relative="1" as="geometry" />
        </mxCell>
        <mxCell id="uui78y84cFhrKZhDwqd7-80" value="SPI" style="edgeLabel;html=1;align=center;verticalAlign=middle;resizable=0;points=[];" parent="uui78y84cFhrKZhDwqd7-79" vertex="1" connectable="0">
          <mxGeometry x="-0.0699" y="1" relative="1" as="geometry">
            <mxPoint x="1" y="-488" as="offset" />
          </mxGeometry>
        </mxCell>
        <mxCell id="uui78y84cFhrKZhDwqd7-91" style="edgeStyle=orthogonalEdgeStyle;rounded=0;orthogonalLoop=1;jettySize=auto;html=1;entryX=0.5;entryY=1;entryDx=0;entryDy=0;" parent="1" source="uui78y84cFhrKZhDwqd7-35" target="uui78y84cFhrKZhDwqd7-90" edge="1">
          <mxGeometry relative="1" as="geometry" />
        </mxCell>
        <mxCell id="uui78y84cFhrKZhDwqd7-108" value="GPIO" style="edgeLabel;html=1;align=center;verticalAlign=middle;resizable=0;points=[];" parent="uui78y84cFhrKZhDwqd7-91" vertex="1" connectable="0">
          <mxGeometry x="0.4723" y="-1" relative="1" as="geometry">
            <mxPoint x="-88" y="-21" as="offset" />
          </mxGeometry>
        </mxCell>
        <mxCell id="uui78y84cFhrKZhDwqd7-143" style="edgeStyle=orthogonalEdgeStyle;rounded=0;orthogonalLoop=1;jettySize=auto;html=1;entryX=0.5;entryY=1;entryDx=0;entryDy=0;" parent="1" source="uui78y84cFhrKZhDwqd7-35" target="uui78y84cFhrKZhDwqd7-70" edge="1">
          <mxGeometry relative="1" as="geometry" />
        </mxCell>
        <mxCell id="uui78y84cFhrKZhDwqd7-144" value="GPIO" style="edgeLabel;html=1;align=center;verticalAlign=middle;resizable=0;points=[];" parent="uui78y84cFhrKZhDwqd7-143" vertex="1" connectable="0">
          <mxGeometry x="0.3146" y="-2" relative="1" as="geometry">
            <mxPoint x="302" y="-22" as="offset" />
          </mxGeometry>
        </mxCell>
        <mxCell id="uui78y84cFhrKZhDwqd7-164" style="edgeStyle=orthogonalEdgeStyle;rounded=0;orthogonalLoop=1;jettySize=auto;html=1;entryX=0.5;entryY=1;entryDx=0;entryDy=0;" parent="1" source="uui78y84cFhrKZhDwqd7-35" target="uui78y84cFhrKZhDwqd7-150" edge="1">
          <mxGeometry relative="1" as="geometry" />
        </mxCell>
        <mxCell id="uui78y84cFhrKZhDwqd7-165" value="PWM" style="edgeLabel;html=1;align=center;verticalAlign=middle;resizable=0;points=[];" parent="uui78y84cFhrKZhDwqd7-164" vertex="1" connectable="0">
          <mxGeometry x="0.7506" relative="1" as="geometry">
            <mxPoint as="offset" />
          </mxGeometry>
        </mxCell>
        <mxCell id="uui78y84cFhrKZhDwqd7-166" style="edgeStyle=orthogonalEdgeStyle;rounded=0;orthogonalLoop=1;jettySize=auto;html=1;entryX=0.5;entryY=1;entryDx=0;entryDy=0;" parent="1" source="uui78y84cFhrKZhDwqd7-35" target="uui78y84cFhrKZhDwqd7-162" edge="1">
          <mxGeometry relative="1" as="geometry" />
        </mxCell>
        <mxCell id="uui78y84cFhrKZhDwqd7-167" value="SPI" style="edgeLabel;html=1;align=center;verticalAlign=middle;resizable=0;points=[];" parent="uui78y84cFhrKZhDwqd7-166" vertex="1" connectable="0">
          <mxGeometry x="0.8749" y="-1" relative="1" as="geometry">
            <mxPoint x="-1" as="offset" />
          </mxGeometry>
        </mxCell>
        <mxCell id="uui78y84cFhrKZhDwqd7-35" value="MCU&lt;div&gt;STM32F446RE&lt;/div&gt;&lt;div&gt;(&lt;span style=&quot;background-color: initial;&quot;&gt;240mA)&lt;/span&gt;&lt;/div&gt;" style="rounded=0;whiteSpace=wrap;html=1;fillColor=#000099;" parent="1" vertex="1">
          <mxGeometry x="520" y="640" width="120" height="80" as="geometry" />
        </mxCell>
        <mxCell id="uui78y84cFhrKZhDwqd7-38" style="edgeStyle=orthogonalEdgeStyle;rounded=0;orthogonalLoop=1;jettySize=auto;html=1;" parent="1" source="uui78y84cFhrKZhDwqd7-36" target="uui78y84cFhrKZhDwqd7-37" edge="1">
          <mxGeometry relative="1" as="geometry" />
        </mxCell>
        <mxCell id="uui78y84cFhrKZhDwqd7-36" value="LDO Regulator&lt;div&gt;&lt;/div&gt;&lt;div&gt;TLV75733&lt;br&gt;&lt;/div&gt;" style="rounded=0;whiteSpace=wrap;html=1;fillColor=#990000;" parent="1" vertex="1">
          <mxGeometry x="680" y="400" width="120" height="80" as="geometry" />
        </mxCell>
        <mxCell id="uui78y84cFhrKZhDwqd7-40" style="edgeStyle=orthogonalEdgeStyle;rounded=0;orthogonalLoop=1;jettySize=auto;html=1;entryX=1;entryY=0.5;entryDx=0;entryDy=0;" parent="1" source="uui78y84cFhrKZhDwqd7-37" target="uui78y84cFhrKZhDwqd7-7" edge="1">
          <mxGeometry relative="1" as="geometry" />
        </mxCell>
        <mxCell id="uui78y84cFhrKZhDwqd7-42" style="edgeStyle=orthogonalEdgeStyle;rounded=0;orthogonalLoop=1;jettySize=auto;html=1;entryX=0.5;entryY=0;entryDx=0;entryDy=0;" parent="1" source="uui78y84cFhrKZhDwqd7-37" target="uui78y84cFhrKZhDwqd7-35" edge="1">
          <mxGeometry relative="1" as="geometry" />
        </mxCell>
        <mxCell id="uui78y84cFhrKZhDwqd7-37" value="3V3 Regulated&lt;div&gt;Power&lt;/div&gt;&lt;div&gt;(1A)&lt;/div&gt;" style="shape=parallelogram;perimeter=parallelogramPerimeter;whiteSpace=wrap;html=1;fixedSize=1;fillColor=#990000;" parent="1" vertex="1">
          <mxGeometry x="520" y="400" width="120" height="80" as="geometry" />
        </mxCell>
        <mxCell id="68ct72u9n7hXC5hJzcnE-8" style="edgeStyle=orthogonalEdgeStyle;rounded=0;orthogonalLoop=1;jettySize=auto;html=1;entryX=0;entryY=0.5;entryDx=0;entryDy=0;" edge="1" parent="1" source="uui78y84cFhrKZhDwqd7-47" target="uui78y84cFhrKZhDwqd7-156">
          <mxGeometry relative="1" as="geometry" />
        </mxCell>
        <mxCell id="68ct72u9n7hXC5hJzcnE-11" style="edgeStyle=orthogonalEdgeStyle;rounded=0;orthogonalLoop=1;jettySize=auto;html=1;exitX=0.25;exitY=1;exitDx=0;exitDy=0;" edge="1" parent="1" source="uui78y84cFhrKZhDwqd7-47">
          <mxGeometry relative="1" as="geometry">
            <mxPoint x="1100" y="120" as="targetPoint" />
            <Array as="points">
              <mxPoint x="2350" y="40" />
              <mxPoint x="1100" y="40" />
            </Array>
          </mxGeometry>
        </mxCell>
        <mxCell id="uui78y84cFhrKZhDwqd7-47" value="Power Monitor&lt;div&gt;INA229&lt;/div&gt;&lt;div&gt;(1mA!!!)&lt;/div&gt;" style="rounded=0;whiteSpace=wrap;html=1;shadow=0;fillColor=#006600;" parent="1" vertex="1">
          <mxGeometry x="2320" y="-80" width="120" height="80" as="geometry" />
        </mxCell>
        <mxCell id="68ct72u9n7hXC5hJzcnE-6" value="" style="edgeStyle=orthogonalEdgeStyle;rounded=0;orthogonalLoop=1;jettySize=auto;html=1;" edge="1" parent="1" source="uui78y84cFhrKZhDwqd7-48" target="68ct72u9n7hXC5hJzcnE-1">
          <mxGeometry relative="1" as="geometry" />
        </mxCell>
        <mxCell id="uui78y84cFhrKZhDwqd7-48" value="Power Converter&lt;div&gt;Custom&lt;/div&gt;" style="rounded=0;whiteSpace=wrap;html=1;fillColor=#4C0099;" parent="1" vertex="1">
          <mxGeometry x="1680" y="-80" width="120" height="80" as="geometry" />
        </mxCell>
        <mxCell id="uui78y84cFhrKZhDwqd7-60" style="edgeStyle=orthogonalEdgeStyle;rounded=0;orthogonalLoop=1;jettySize=auto;html=1;entryX=0;entryY=0.5;entryDx=0;entryDy=0;" parent="1" source="uui78y84cFhrKZhDwqd7-49" target="uui78y84cFhrKZhDwqd7-47" edge="1">
          <mxGeometry relative="1" as="geometry" />
        </mxCell>
        <mxCell id="uui78y84cFhrKZhDwqd7-49" value="(ISO) Load Switch&lt;div&gt;TPSI3050&lt;/div&gt;&lt;div&gt;(50mA)&lt;/div&gt;" style="rounded=0;whiteSpace=wrap;html=1;shadow=0;fillColor=#006600;" parent="1" vertex="1">
          <mxGeometry x="2160" y="-80" width="120" height="80" as="geometry" />
        </mxCell>
        <mxCell id="uui78y84cFhrKZhDwqd7-56" style="edgeStyle=orthogonalEdgeStyle;rounded=0;orthogonalLoop=1;jettySize=auto;html=1;entryX=0;entryY=0.5;entryDx=0;entryDy=0;" parent="1" source="uui78y84cFhrKZhDwqd7-50" target="uui78y84cFhrKZhDwqd7-52" edge="1">
          <mxGeometry relative="1" as="geometry" />
        </mxCell>
        <mxCell id="uui78y84cFhrKZhDwqd7-50" value="(ISO) Load Switch&lt;div&gt;TPSI3050&lt;/div&gt;&lt;div&gt;(50mA)&lt;/div&gt;" style="rounded=0;whiteSpace=wrap;html=1;shadow=0;fillColor=#006600;" parent="1" vertex="1">
          <mxGeometry x="1200" y="-80" width="120" height="80" as="geometry" />
        </mxCell>
        <mxCell id="uui78y84cFhrKZhDwqd7-59" style="edgeStyle=orthogonalEdgeStyle;rounded=0;orthogonalLoop=1;jettySize=auto;html=1;" parent="1" source="uui78y84cFhrKZhDwqd7-51" target="uui78y84cFhrKZhDwqd7-49" edge="1">
          <mxGeometry relative="1" as="geometry" />
        </mxCell>
        <mxCell id="uui78y84cFhrKZhDwqd7-51" value="(ISO) Active Load&lt;div&gt;ISO6720&lt;/div&gt;&lt;div&gt;(shared)&lt;/div&gt;" style="rounded=0;whiteSpace=wrap;html=1;shadow=0;fillColor=#006600;" parent="1" vertex="1">
          <mxGeometry x="2000" y="-80" width="120" height="80" as="geometry" />
        </mxCell>
        <mxCell id="68ct72u9n7hXC5hJzcnE-4" value="" style="edgeStyle=orthogonalEdgeStyle;rounded=0;orthogonalLoop=1;jettySize=auto;html=1;" edge="1" parent="1" source="uui78y84cFhrKZhDwqd7-52" target="68ct72u9n7hXC5hJzcnE-3">
          <mxGeometry relative="1" as="geometry" />
        </mxCell>
        <mxCell id="uui78y84cFhrKZhDwqd7-52" value="(ISO) Active Load&lt;div&gt;ISO6720&lt;/div&gt;&lt;div&gt;(6mA)&lt;/div&gt;" style="rounded=0;whiteSpace=wrap;html=1;shadow=0;fillColor=#006600;" parent="1" vertex="1">
          <mxGeometry x="1360" y="-80" width="120" height="80" as="geometry" />
        </mxCell>
        <mxCell id="uui78y84cFhrKZhDwqd7-55" style="edgeStyle=orthogonalEdgeStyle;rounded=0;orthogonalLoop=1;jettySize=auto;html=1;entryX=0;entryY=0.5;entryDx=0;entryDy=0;" parent="1" source="uui78y84cFhrKZhDwqd7-53" target="uui78y84cFhrKZhDwqd7-50" edge="1">
          <mxGeometry relative="1" as="geometry" />
        </mxCell>
        <mxCell id="68ct72u9n7hXC5hJzcnE-17" style="edgeStyle=orthogonalEdgeStyle;rounded=0;orthogonalLoop=1;jettySize=auto;html=1;exitX=0.5;exitY=1;exitDx=0;exitDy=0;entryX=0.25;entryY=1;entryDx=0;entryDy=0;" edge="1" parent="1" source="uui78y84cFhrKZhDwqd7-53" target="uui78y84cFhrKZhDwqd7-73">
          <mxGeometry relative="1" as="geometry">
            <Array as="points">
              <mxPoint x="1100" y="630" />
              <mxPoint x="1230" y="630" />
            </Array>
          </mxGeometry>
        </mxCell>
        <mxCell id="68ct72u9n7hXC5hJzcnE-18" style="edgeStyle=orthogonalEdgeStyle;rounded=0;orthogonalLoop=1;jettySize=auto;html=1;exitX=0.5;exitY=1;exitDx=0;exitDy=0;entryX=0.25;entryY=1;entryDx=0;entryDy=0;" edge="1" parent="1" source="uui78y84cFhrKZhDwqd7-53" target="uui78y84cFhrKZhDwqd7-90">
          <mxGeometry relative="1" as="geometry">
            <Array as="points">
              <mxPoint x="1100" y="630" />
              <mxPoint x="1710" y="630" />
            </Array>
          </mxGeometry>
        </mxCell>
        <mxCell id="68ct72u9n7hXC5hJzcnE-19" style="edgeStyle=orthogonalEdgeStyle;rounded=0;orthogonalLoop=1;jettySize=auto;html=1;entryX=0.25;entryY=1;entryDx=0;entryDy=0;" edge="1" parent="1" source="uui78y84cFhrKZhDwqd7-53" target="uui78y84cFhrKZhDwqd7-74">
          <mxGeometry relative="1" as="geometry">
            <Array as="points">
              <mxPoint x="1100" y="630" />
              <mxPoint x="2190" y="630" />
            </Array>
          </mxGeometry>
        </mxCell>
        <mxCell id="68ct72u9n7hXC5hJzcnE-20" style="edgeStyle=orthogonalEdgeStyle;rounded=0;orthogonalLoop=1;jettySize=auto;html=1;entryX=0;entryY=0.5;entryDx=0;entryDy=0;" edge="1" parent="1" source="uui78y84cFhrKZhDwqd7-53" target="68ct72u9n7hXC5hJzcnE-16">
          <mxGeometry relative="1" as="geometry" />
        </mxCell>
        <mxCell id="uui78y84cFhrKZhDwqd7-53" value="Power Monitor&lt;div&gt;INA229&lt;/div&gt;&lt;div&gt;(1mA!!!)&lt;/div&gt;" style="rounded=0;whiteSpace=wrap;html=1;shadow=0;fillColor=#006600;" parent="1" vertex="1">
          <mxGeometry x="1040" y="-80" width="120" height="80" as="geometry" />
        </mxCell>
        <mxCell id="uui78y84cFhrKZhDwqd7-70" value="OR Gate&lt;div&gt;SN74LVC2G32&lt;br&gt;&lt;/div&gt;&lt;div&gt;(shared)&lt;/div&gt;" style="rounded=0;whiteSpace=wrap;html=1;shadow=0;fillColor=#006600;" parent="1" vertex="1">
          <mxGeometry x="2000" y="320" width="120" height="80" as="geometry" />
        </mxCell>
        <mxCell id="uui78y84cFhrKZhDwqd7-72" value="OR Gate&lt;br&gt;SN74LVC2G32" style="rounded=0;whiteSpace=wrap;html=1;shadow=0;fillColor=#006600;" parent="1" vertex="1">
          <mxGeometry x="1360" y="320" width="120" height="80" as="geometry" />
        </mxCell>
        <mxCell id="uui78y84cFhrKZhDwqd7-74" value="AND Gate&lt;br&gt;SN74LVC08A&lt;br&gt;&lt;div&gt;(shared)&lt;/div&gt;" style="rounded=0;whiteSpace=wrap;html=1;shadow=0;fillColor=#006600;" parent="1" vertex="1">
          <mxGeometry x="2160" y="520" width="120" height="80" as="geometry" />
        </mxCell>
        <mxCell id="68ct72u9n7hXC5hJzcnE-34" style="edgeStyle=orthogonalEdgeStyle;rounded=0;orthogonalLoop=1;jettySize=auto;html=1;exitX=0.5;exitY=0;exitDx=0;exitDy=0;entryX=0.5;entryY=1;entryDx=0;entryDy=0;" edge="1" parent="1" source="uui78y84cFhrKZhDwqd7-90" target="68ct72u9n7hXC5hJzcnE-23">
          <mxGeometry relative="1" as="geometry" />
        </mxCell>
        <mxCell id="uui78y84cFhrKZhDwqd7-90" value="AND Gate&lt;br&gt;SN74LVC08A&lt;br&gt;&lt;div&gt;(shared)&lt;/div&gt;" style="rounded=0;whiteSpace=wrap;html=1;shadow=0;fillColor=#006600;" parent="1" vertex="1">
          <mxGeometry x="1680" y="520" width="120" height="80" as="geometry" />
        </mxCell>
        <mxCell id="uui78y84cFhrKZhDwqd7-117" value="Power Monitor ALERT on OVL/UVL/OCL/UCL/OPL&lt;div&gt;OR MCU, Power Monitor ALERT with Active Load&lt;/div&gt;&lt;div&gt;AND MCU, Power Monitor ALERT with Load Switch, Gate Driver&lt;/div&gt;" style="text;html=1;align=left;verticalAlign=middle;resizable=0;points=[];autosize=1;strokeColor=none;fillColor=none;" parent="1" vertex="1">
          <mxGeometry x="1010" y="-150" width="370" height="60" as="geometry" />
        </mxCell>
        <mxCell id="uui78y84cFhrKZhDwqd7-147" value="All devices powered from 3V3 Regulated Power" style="text;html=1;align=left;verticalAlign=middle;whiteSpace=wrap;rounded=0;" parent="1" vertex="1">
          <mxGeometry x="1010" y="750" width="150" height="40" as="geometry" />
        </mxCell>
        <mxCell id="uui78y84cFhrKZhDwqd7-150" value="&lt;div&gt;Fan&lt;/div&gt;&lt;div&gt;(&lt;span style=&quot;background-color: initial;&quot;&gt;200mA)&lt;/span&gt;&lt;/div&gt;" style="rounded=0;whiteSpace=wrap;html=1;fillColor=#000099;" parent="1" vertex="1">
          <mxGeometry x="680" y="520" width="120" height="80" as="geometry" />
        </mxCell>
        <mxCell id="uui78y84cFhrKZhDwqd7-156" value="Battery Power&lt;div&gt;[80, 130]V&lt;/div&gt;" style="shape=parallelogram;perimeter=parallelogramPerimeter;whiteSpace=wrap;html=1;fixedSize=1;fillColor=#006600;shadow=0;" parent="1" vertex="1">
          <mxGeometry x="2520" y="-80" width="120" height="80" as="geometry" />
        </mxCell>
        <mxCell id="uui78y84cFhrKZhDwqd7-162" value="&lt;div&gt;Display &amp;amp; SDC&lt;/div&gt;&lt;div&gt;ST7735R&lt;/div&gt;&lt;div&gt;(50mA)&lt;/div&gt;" style="rounded=0;whiteSpace=wrap;html=1;fillColor=#000099;" parent="1" vertex="1">
          <mxGeometry x="840" y="520" width="120" height="80" as="geometry" />
        </mxCell>
        <mxCell id="uui78y84cFhrKZhDwqd7-171" value="&lt;b&gt;Legend&lt;/b&gt;&lt;div&gt;&lt;span style=&quot;background-color: rgb(153, 0, 0);&quot;&gt;Red&lt;/span&gt;&lt;span style=&quot;background-color: initial;&quot;&gt; -&lt;/span&gt;&lt;span style=&quot;background-color: initial;&quot;&gt;&amp;nbsp;Power Regulation&lt;/span&gt;&lt;div&gt;&lt;span style=&quot;background-color: rgb(0, 0, 153);&quot;&gt;Blue&lt;/span&gt;&lt;span style=&quot;background-color: initial;&quot;&gt; - COM and Control&lt;/span&gt;&lt;/div&gt;&lt;div&gt;&lt;span style=&quot;background-color: rgb(0, 102, 0);&quot;&gt;Green&lt;/span&gt;&lt;span style=&quot;background-color: initial;&quot;&gt; - Power Path Hardware Protection&lt;/span&gt;&lt;/div&gt;&lt;div&gt;&lt;span style=&quot;background-color: rgb(76, 0, 153);&quot;&gt;Purple&lt;/span&gt;&lt;span style=&quot;background-color: initial;&quot;&gt; - DC-DC Converter&lt;/span&gt;&lt;/div&gt;&lt;/div&gt;" style="rounded=0;whiteSpace=wrap;html=1;align=left;" parent="1" vertex="1">
          <mxGeometry x="40" y="-160" width="240" height="80" as="geometry" />
        </mxCell>
        <mxCell id="F316DXvCX8CDi4fnNiCG-2" style="edgeStyle=orthogonalEdgeStyle;rounded=0;orthogonalLoop=1;jettySize=auto;html=1;entryX=0.5;entryY=1;entryDx=0;entryDy=0;" parent="1" source="F316DXvCX8CDi4fnNiCG-1" target="uui78y84cFhrKZhDwqd7-17" edge="1">
          <mxGeometry relative="1" as="geometry" />
        </mxCell>
        <mxCell id="F316DXvCX8CDi4fnNiCG-1" value="(ISO) DC-DC Regulator&lt;div&gt;???&lt;/div&gt;" style="rounded=0;whiteSpace=wrap;html=1;fillColor=#999999;" parent="1" vertex="1">
          <mxGeometry x="200" y="160" width="120" height="80" as="geometry" />
        </mxCell>
        <mxCell id="68ct72u9n7hXC5hJzcnE-7" value="" style="edgeStyle=orthogonalEdgeStyle;rounded=0;orthogonalLoop=1;jettySize=auto;html=1;" edge="1" parent="1" source="68ct72u9n7hXC5hJzcnE-1" target="uui78y84cFhrKZhDwqd7-51">
          <mxGeometry relative="1" as="geometry" />
        </mxCell>
        <mxCell id="68ct72u9n7hXC5hJzcnE-1" value="Fuse" style="rounded=0;whiteSpace=wrap;html=1;shadow=0;fillColor=#4C0099;" vertex="1" parent="1">
          <mxGeometry x="1840" y="-80" width="120" height="80" as="geometry" />
        </mxCell>
        <mxCell id="68ct72u9n7hXC5hJzcnE-40" style="edgeStyle=orthogonalEdgeStyle;rounded=0;orthogonalLoop=1;jettySize=auto;html=1;exitX=1;exitY=0.5;exitDx=0;exitDy=0;entryX=0;entryY=0.5;entryDx=0;entryDy=0;" edge="1" parent="1" source="68ct72u9n7hXC5hJzcnE-3" target="uui78y84cFhrKZhDwqd7-48">
          <mxGeometry relative="1" as="geometry" />
        </mxCell>
        <mxCell id="68ct72u9n7hXC5hJzcnE-3" value="Fuse" style="rounded=0;whiteSpace=wrap;html=1;shadow=0;fillColor=#4C0099;" vertex="1" parent="1">
          <mxGeometry x="1520" y="-80" width="120" height="80" as="geometry" />
        </mxCell>
        <mxCell id="68ct72u9n7hXC5hJzcnE-9" value="OD Active Low&lt;div&gt;LOW/HIGH&lt;/div&gt;&lt;div&gt;ALERT/~ALERT&lt;/div&gt;" style="text;html=1;align=center;verticalAlign=middle;whiteSpace=wrap;rounded=0;" vertex="1" parent="1">
          <mxGeometry x="1120" y="50" width="60" height="30" as="geometry" />
        </mxCell>
        <mxCell id="68ct72u9n7hXC5hJzcnE-21" style="edgeStyle=orthogonalEdgeStyle;rounded=0;orthogonalLoop=1;jettySize=auto;html=1;entryX=0.25;entryY=1;entryDx=0;entryDy=0;" edge="1" parent="1" source="68ct72u9n7hXC5hJzcnE-16" target="uui78y84cFhrKZhDwqd7-72">
          <mxGeometry relative="1" as="geometry" />
        </mxCell>
        <mxCell id="68ct72u9n7hXC5hJzcnE-22" style="edgeStyle=orthogonalEdgeStyle;rounded=0;orthogonalLoop=1;jettySize=auto;html=1;exitX=1;exitY=0.5;exitDx=0;exitDy=0;entryX=0.25;entryY=1;entryDx=0;entryDy=0;" edge="1" parent="1" source="68ct72u9n7hXC5hJzcnE-16" target="uui78y84cFhrKZhDwqd7-70">
          <mxGeometry relative="1" as="geometry" />
        </mxCell>
        <mxCell id="68ct72u9n7hXC5hJzcnE-16" value="NOT Gate" style="rounded=0;whiteSpace=wrap;html=1;shadow=0;fillColor=#006600;" vertex="1" parent="1">
          <mxGeometry x="1140" y="400" width="80" height="80" as="geometry" />
        </mxCell>
        <mxCell id="68ct72u9n7hXC5hJzcnE-27" style="edgeStyle=orthogonalEdgeStyle;rounded=0;orthogonalLoop=1;jettySize=auto;html=1;entryX=0.5;entryY=1;entryDx=0;entryDy=0;" edge="1" parent="1" source="68ct72u9n7hXC5hJzcnE-23" target="uui78y84cFhrKZhDwqd7-48">
          <mxGeometry relative="1" as="geometry" />
        </mxCell>
        <mxCell id="68ct72u9n7hXC5hJzcnE-23" value="Buffer&lt;div&gt;SN74HCS367&lt;br&gt;&lt;/div&gt;" style="rounded=0;whiteSpace=wrap;html=1;shadow=0;fillColor=#006600;" vertex="1" parent="1">
          <mxGeometry x="1200" y="200" width="1080" height="80" as="geometry" />
        </mxCell>
        <mxCell id="68ct72u9n7hXC5hJzcnE-24" style="edgeStyle=orthogonalEdgeStyle;rounded=0;orthogonalLoop=1;jettySize=auto;html=1;exitX=0.5;exitY=0;exitDx=0;exitDy=0;entryX=0.203;entryY=0.969;entryDx=0;entryDy=0;entryPerimeter=0;" edge="1" parent="1" source="uui78y84cFhrKZhDwqd7-72" target="68ct72u9n7hXC5hJzcnE-23">
          <mxGeometry relative="1" as="geometry" />
        </mxCell>
        <mxCell id="68ct72u9n7hXC5hJzcnE-25" style="edgeStyle=orthogonalEdgeStyle;rounded=0;orthogonalLoop=1;jettySize=auto;html=1;exitX=0.5;exitY=0;exitDx=0;exitDy=0;entryX=0.796;entryY=0.999;entryDx=0;entryDy=0;entryPerimeter=0;" edge="1" parent="1" source="uui78y84cFhrKZhDwqd7-70" target="68ct72u9n7hXC5hJzcnE-23">
          <mxGeometry relative="1" as="geometry" />
        </mxCell>
        <mxCell id="68ct72u9n7hXC5hJzcnE-29" value="" style="endArrow=classic;html=1;rounded=0;exitX=0.407;exitY=-0.021;exitDx=0;exitDy=0;exitPerimeter=0;entryX=0;entryY=0.5;entryDx=0;entryDy=0;" edge="1" parent="1" source="68ct72u9n7hXC5hJzcnE-23" target="68ct72u9n7hXC5hJzcnE-32">
          <mxGeometry width="50" height="50" relative="1" as="geometry">
            <mxPoint x="1700" y="140" as="sourcePoint" />
            <mxPoint x="1750" y="90" as="targetPoint" />
            <Array as="points">
              <mxPoint x="1640" y="140" />
              <mxPoint x="1640" y="120" />
            </Array>
          </mxGeometry>
        </mxCell>
        <mxCell id="68ct72u9n7hXC5hJzcnE-30" style="edgeStyle=orthogonalEdgeStyle;rounded=0;orthogonalLoop=1;jettySize=auto;html=1;exitX=0.5;exitY=0;exitDx=0;exitDy=0;entryX=0.056;entryY=0.96;entryDx=0;entryDy=0;entryPerimeter=0;" edge="1" parent="1" source="uui78y84cFhrKZhDwqd7-73" target="68ct72u9n7hXC5hJzcnE-23">
          <mxGeometry relative="1" as="geometry" />
        </mxCell>
        <mxCell id="68ct72u9n7hXC5hJzcnE-31" style="edgeStyle=orthogonalEdgeStyle;rounded=0;orthogonalLoop=1;jettySize=auto;html=1;entryX=0.945;entryY=0.969;entryDx=0;entryDy=0;entryPerimeter=0;" edge="1" parent="1" source="uui78y84cFhrKZhDwqd7-74" target="68ct72u9n7hXC5hJzcnE-23">
          <mxGeometry relative="1" as="geometry" />
        </mxCell>
        <mxCell id="68ct72u9n7hXC5hJzcnE-32" value="&lt;div&gt;(ISO) Gate Driver&lt;/div&gt;ADUM4221&lt;div&gt;(&lt;span style=&quot;background-color: initial;&quot;&gt;5.2mA | 10mA)&lt;/span&gt;&lt;/div&gt;" style="rounded=0;whiteSpace=wrap;html=1;fillColor=#4C0099;" vertex="1" parent="1">
          <mxGeometry x="1680" y="80" width="120" height="80" as="geometry" />
        </mxCell>
        <mxCell id="68ct72u9n7hXC5hJzcnE-33" value="" style="edgeStyle=orthogonalEdgeStyle;rounded=0;orthogonalLoop=1;jettySize=auto;html=1;entryX=0.407;entryY=1.026;entryDx=0;entryDy=0;entryPerimeter=0;" edge="1" parent="1" source="uui78y84cFhrKZhDwqd7-35" target="68ct72u9n7hXC5hJzcnE-23">
          <mxGeometry relative="1" as="geometry">
            <mxPoint x="640" y="680" as="sourcePoint" />
            <mxPoint x="1680" y="560" as="targetPoint" />
          </mxGeometry>
        </mxCell>
        <mxCell id="68ct72u9n7hXC5hJzcnE-38" value="PWM" style="edgeLabel;html=1;align=center;verticalAlign=middle;resizable=0;points=[];" vertex="1" connectable="0" parent="68ct72u9n7hXC5hJzcnE-33">
          <mxGeometry x="0.4613" relative="1" as="geometry">
            <mxPoint as="offset" />
          </mxGeometry>
        </mxCell>
        <mxCell id="uui78y84cFhrKZhDwqd7-73" value="AND Gate&lt;br&gt;SN74LVC08A" style="rounded=0;whiteSpace=wrap;html=1;shadow=0;fillColor=#006600;" parent="1" vertex="1">
          <mxGeometry x="1200" y="520" width="120" height="80" as="geometry" />
        </mxCell>
        <mxCell id="68ct72u9n7hXC5hJzcnE-35" value="GPIO" style="edgeLabel;html=1;align=center;verticalAlign=middle;resizable=0;points=[];" vertex="1" connectable="0" parent="1">
          <mxGeometry x="1739.9970588235292" y="659.9988235294118" as="geometry" />
        </mxCell>
        <mxCell id="68ct72u9n7hXC5hJzcnE-41" style="edgeStyle=orthogonalEdgeStyle;rounded=0;orthogonalLoop=1;jettySize=auto;html=1;entryX=0.582;entryY=0.963;entryDx=0;entryDy=0;entryPerimeter=0;" edge="1" parent="1" source="uui78y84cFhrKZhDwqd7-35" target="68ct72u9n7hXC5hJzcnE-23">
          <mxGeometry relative="1" as="geometry" />
        </mxCell>
        <mxCell id="68ct72u9n7hXC5hJzcnE-42" value="GPIO" style="edgeLabel;html=1;align=center;verticalAlign=middle;resizable=0;points=[];" vertex="1" connectable="0" parent="68ct72u9n7hXC5hJzcnE-41">
          <mxGeometry x="0.517" relative="1" as="geometry">
            <mxPoint y="-1" as="offset" />
          </mxGeometry>
        </mxCell>
        <mxCell id="68ct72u9n7hXC5hJzcnE-43" value="" style="endArrow=classic;html=1;rounded=0;exitX=0.203;exitY=-0.01;exitDx=0;exitDy=0;exitPerimeter=0;entryX=0.5;entryY=1;entryDx=0;entryDy=0;" edge="1" parent="1" source="68ct72u9n7hXC5hJzcnE-23" target="uui78y84cFhrKZhDwqd7-52">
          <mxGeometry width="50" height="50" relative="1" as="geometry">
            <mxPoint x="1370" y="160" as="sourcePoint" />
            <mxPoint x="1420" y="110" as="targetPoint" />
          </mxGeometry>
        </mxCell>
        <mxCell id="68ct72u9n7hXC5hJzcnE-44" value="" style="endArrow=classic;html=1;rounded=0;entryX=0.5;entryY=1;entryDx=0;entryDy=0;exitX=0.056;exitY=0.018;exitDx=0;exitDy=0;exitPerimeter=0;" edge="1" parent="1" source="68ct72u9n7hXC5hJzcnE-23" target="uui78y84cFhrKZhDwqd7-50">
          <mxGeometry width="50" height="50" relative="1" as="geometry">
            <mxPoint x="1340" y="160" as="sourcePoint" />
            <mxPoint x="1390" y="110" as="targetPoint" />
          </mxGeometry>
        </mxCell>
        <mxCell id="68ct72u9n7hXC5hJzcnE-45" value="" style="endArrow=classic;html=1;rounded=0;entryX=0.5;entryY=1;entryDx=0;entryDy=0;exitX=0.796;exitY=0.018;exitDx=0;exitDy=0;exitPerimeter=0;" edge="1" parent="1" source="68ct72u9n7hXC5hJzcnE-23" target="uui78y84cFhrKZhDwqd7-51">
          <mxGeometry width="50" height="50" relative="1" as="geometry">
            <mxPoint x="2050" y="150" as="sourcePoint" />
            <mxPoint x="2100" y="100" as="targetPoint" />
          </mxGeometry>
        </mxCell>
        <mxCell id="68ct72u9n7hXC5hJzcnE-46" value="" style="endArrow=classic;html=1;rounded=0;entryX=0.5;entryY=1;entryDx=0;entryDy=0;exitX=0.945;exitY=0.018;exitDx=0;exitDy=0;exitPerimeter=0;" edge="1" parent="1" source="68ct72u9n7hXC5hJzcnE-23" target="uui78y84cFhrKZhDwqd7-49">
          <mxGeometry width="50" height="50" relative="1" as="geometry">
            <mxPoint x="2240" y="140" as="sourcePoint" />
            <mxPoint x="2290" y="90" as="targetPoint" />
          </mxGeometry>
        </mxCell>
      </root>
    </mxGraphModel>
  </diagram>
  <diagram id="ltJR7F7Oc_cM9b76D_p0" name="Page-2">
    <mxGraphModel dx="1203" dy="577" grid="1" gridSize="10" guides="1" tooltips="1" connect="1" arrows="1" fold="1" page="1" pageScale="1" pageWidth="850" pageHeight="1100" math="0" shadow="0">
      <root>
        <mxCell id="0" />
        <mxCell id="1" parent="0" />
      </root>
    </mxGraphModel>
  </diagram>
</mxfile>
